:FULLY-SPECIFIED
:FORCE-ALL-JOINTS-BE-3DOF
:DEGREES
476
root 3.58971 16.265 -7.12725 4.47799 59.4855 -7.90937
lfemur -40.8514 1.04053 -20.832
ltibia 50.0521 -0 0
lfoot -20.8537 -2.33667 -0.000662874
ltoes 16.2563 -0 0
rfemur -25.0167 -0.995199 11.6626
rtibia 66.2845 -0 0
rfoot 20.9534 -2.42221 -0.243839
rtoes -28.8862 0 0
lowerback 1.85781 -0.20374 2.16166
upperback -0.489863 -0.194966 1.18621
thorax -1.53582 -0.106975 0.0192183
lowerneck -8.39172 -6.49783 0.767954
upperneck 4.0096 -8.83997 1.37565
head 2.78832 -4.33191 -0.139874
lclavicle 7.92033e-16 -5.54112e-15 0
lhumerus -48.2047 -27.5073 108.536
lradius 54.5371 -0 0
lwrist 3.49231 0 0
lhand -9.45654 -5.76002 0.554026
lfingers 7.12502 -0 0
lthumb 16.4838 23.2156 0.458735
rclavicle 7.92033e-16 -5.54112e-15 0
rhumerus -52.2242 3.97917 -86.2559
rradius 63.9954 -0 0
rwrist 16.4703 0 0
rhand -26.7541 -26.4163 0.0876182
rfingers 7.12502 -0 0
rthumb -0.182481 -56.3666 0.0840783
477
root 3.66922 16.2873 -7.08111 4.64618 60.7216 -7.38883
lfemur -39.9645 -0.222771 -21.1085
ltibia 49.5429 -0 0
lfoot -20.8937 -2.31839 -0.000624631
ltoes 16.5419 -0 0
rfemur -26.7943 -0.901695 11.4947
rtibia 68.4 -0 0
rfoot 20.6637 -1.49334 -0.229738
rtoes -27.4402 0 0
lowerback 1.97632 -0.229529 1.90782
upperback -0.464496 -0.234736 1.10204
thorax -1.57668 -0.125492 0.0761279
lowerneck -8.40836 -6.66122 0.625343
upperneck 4.0993 -9.04893 1.43733
head 2.83143 -4.43432 -0.10969
lclavicle 7.92033e-16 -5.54112e-15 0
lhumerus -48.3295 -27.7829 108.786
lradius 54.7582 -0 0
lwrist 3.6733 0 0
lhand -8.33572 -5.21402 0.521939
lfingers 7.12502 -0 0
lthumb 17.5629 23.685 0.432178
rclavicle 7.92033e-16 -5.54112e-15 0
rhumerus -52.0336 4.55809 -86.6835
rradius 64.1441 -0 0
rwrist 16.9296 0 0
rhand -26.3949 -26.1474 0.0825608
rfingers 7.12502 -0 0
rthumb 0.164418 -56.0994 0.0792253
478
root 3.74873 16.3096 -7.03496 4.84501 61.957 -6.83962
lfemur -39.0713 -1.48162 -21.4047
ltibia 49.0336 -0 0
lfoot -20.9337 -2.30011 -0.00057364
ltoes 16.8274 -0 0
rfemur -28.5721 -0.813443 11.324
rtibia 70.5156 -0 0
rfoot 20.3743 -0.564561 -0.210943
rtoes -25.9943 0 0
lowerback 2.09495 -0.254794 1.65393
upperback -0.439072 -0.274468 1.01785
thorax -1.61756 -0.143968 0.133051
lowerneck -8.42461 -6.82465 0.482733
upperneck 4.18883 -9.25799 1.49871
head 2.87449 -4.53675 -0.0795788
lclavicle 7.92033e-16 -5.54112e-15 0
lhumerus -48.4559 -28.0579 109.037
lradius 54.9792 -0 0
lwrist 3.85429 0 0
lhand -7.21526 -4.66876 0.47918
lfingers 7.12502 -0 0
lthumb 18.6418 24.1538 0.396787
rclavicle 7.92033e-16 -5.54112e-15 0
rhumerus -51.8472 5.13841 -87.1096
rradius 64.2928 -0 0
rwrist 17.3888 0 0
rhand -26.0358 -25.8786 0.075818
rfingers 7.12502 -0 0
rthumb 0.511291 -55.8323 0.0727551
479
root 3.82824 16.332 -6.98882 5.07852 63.1913 -6.25762
lfemur -38.1708 -2.73569 -21.7206
ltibia 48.5243 -0 0
lfoot -20.9736 -2.28183 -0.000509902
ltoes 17.113 -0 0
rfemur -30.3501 -0.73053 11.1506
rtibia 72.6311 -0 0
rfoot 20.0853 0.364112 -0.18746
rtoes -24.5483 0 0
lowerback 2.21368 -0.279532 1.39999
upperback -0.413589 -0.314163 0.933638
thorax -1.65846 -0.162403 0.189987
lowerneck -8.44045 -6.98811 0.34012
upperneck 4.27818 -9.46714 1.5598
head 2.9175 -4.6392 -0.0495406
lclavicle 7.92033e-16 -5.54112e-15 0
lhumerus -48.584 -28.3324 109.289
lradius 55.2003 -0 0
lwrist 4.03528 0 0
lhand -6.09526 -4.12443 0.425769
lfingers 7.12502 -0 0
lthumb 19.7204 24.6219 0.352575
rclavicle 7.92033e-16 -5.54112e-15 0
rhumerus -51.665 5.7201 -87.5342
rradius 64.4415 -0 0
rwrist 17.8481 0 0
rhand -25.6766 -25.6098 0.0673904
rfingers 7.12502 -0 0
rthumb 0.858129 -55.5653 0.0646681
480
root 3.90775 16.3543 -6.94267 5.35151 64.4245 -5.63792
lfemur -37.2623 -3.98461 -22.0567
ltibia 48.015 -0 0
lfoot -21.0136 -2.26356 -0.000433417
ltoes 17.3986 -0 0
rfemur -32.1284 -0.653037 10.9747
rtibia 74.7466 -0 0
rfoot 19.7966 1.29265 -0.159295
rtoes -23.1023 0 0
lowerback 2.33253 -0.303744 1.146
upperback -0.388047 -0.35382 0.84941
thorax -1.69938 -0.180798 0.246936
lowerneck -8.45588 -7.15162 0.197502
upperneck 4.36737 -9.67639 1.6206
head 2.96047 -4.74167 -0.0195753
lclavicle 7.92033e-16 -5.54112e-15 0
lhumerus -48.7138 -28.6064 109.543
lradius 55.4214 -0 0
lwrist 4.21627 0 0
lhand -4.97583 -3.58127 0.361732
lfingers 7.12502 -0 0
lthumb 20.7986 25.089 0.299562
rclavicle 7.92033e-16 -5.54112e-15 0
rhumerus -51.487 6.30311 -87.9574
rradius 64.5902 -0 0
rwrist 18.3074 0 0
rhand -25.3175 -25.3411 0.0572783
rfingers 7.12502 -0 0
rthumb 1.20493 -55.2983 0.0549647
481
root 3.98726 16.3767 -6.89653 5.66975 65.6562 -4.97465
lfemur -36.3448 -5.22803 -22.4133
ltibia 47.5057 -0 0
lfoot -21.0535 -2.24528 -0.000344184
ltoes 17.6842 -0 0
rfemur -33.9068 -0.581039 10.7966
rtibia 76.8622 -0 0
rfoot 19.5085 2.22104 -0.126456
rtoes -21.6563 0 0
lowerback 2.45148 -0.327428 0.891959
upperback -0.362447 -0.39344 0.765164
thorax -1.74031 -0.199152 0.303899
lowerneck -8.47091 -7.31516 0.0548767
upperneck 4.45638 -9.88573 1.68111
head 3.00339 -4.84417 0.0103175
lclavicle 7.92033e-16 -5.54112e-15 0
lhumerus -48.8454 -28.88 109.798
lradius 55.6424 -0 0
lwrist 4.39726 0 0
lhand -3.85707 -3.03946 0.287099
lfingers 7.12502 -0 0
lthumb 21.8763 25.5551 0.23777
rclavicle 7.92033e-16 -5.54112e-15 0
rhumerus -51.313 6.88742 -88.3792
rradius 64.7389 -0 0
rwrist 18.7667 0 0
rhand -24.9585 -25.0724 0.0454824
rfingers 7.12502 -0 0
rthumb 1.55167 -55.0313 0.0436454
482
root 4.06677 16.399 -6.85038 6.04023 66.8862 -4.26075
lfemur -35.4175 -6.46557 -22.7906
ltibia 46.9965 -0 0
lfoot -21.0935 -2.227 -0.000242203
ltoes 17.9697 -0 0
rfemur -35.6855 -0.514605 10.6162
rtibia 78.9777 -0 0
rfoot 19.2209 3.14925 -0.0889537
rtoes -20.2104 0 0
lowerback 2.57054 -0.350585 0.637868
upperback -0.336789 -0.433022 0.6809
thorax -1.78127 -0.217466 0.360874
lowerneck -8.48554 -7.47874 -0.0877582
upperneck 4.54522 -10.0952 1.74132
head 3.04626 -4.94669 0.0401377
lclavicle 7.92033e-16 -5.54112e-15 0
lhumerus -48.9786 -29.153 110.054
lradius 55.8635 -0 0
lwrist 4.57825 0 0
lhand -2.73906 -2.49921 0.201905
lfingers 7.12502 -0 0
lthumb 22.9535 26.0199 0.167226
rclavicle 7.92033e-16 -5.54112e-15 0
rhumerus -51.1432 7.47297 -88.7998
rradius 64.8876 -0 0
rwrist 19.2259 0 0
rhand -24.5995 -24.8039 0.0320035
rfingers 7.12502 -0 0
rthumb 1.89837 -54.7645 0.0307111
483
root 4.14628 16.4214 -6.80424 6.47148 68.1142 -3.48757
lfemur -34.4795 -7.69683 -23.189
ltibia 46.4872 -0 0
lfoot -21.1334 -2.20872 -0.000127475
ltoes 18.2553 -0 0
rfemur -37.4643 -0.453801 10.4339
rtibia 81.0933 -0 0
rfoot 18.9339 4.07726 -0.0467975
rtoes -18.7644 0 0
lowerback 2.68969 -0.373214 0.383729
upperback -0.311072 -0.472566 0.596618
thorax -1.82224 -0.235738 0.417863
lowerneck -8.49976 -7.64236 -0.230405
upperneck 4.6339 -10.3047 1.80125
head 3.08908 -5.04923 0.0698856
lclavicle 7.92033e-16 -5.54112e-15 0
lhumerus -49.1137 -29.4255 110.312
lradius 56.0845 -0 0
lwrist 4.75924 0 0
lhand -1.62192 -1.96073 0.106191
lfingers 7.12502 -0 0
lthumb 24.03 26.4834 0.087958
rclavicle 7.92033e-16 -5.54112e-15 0
rhumerus -50.9775 8.05975 -89.2193
rradius 65.0363 -0 0
rwrist 19.6852 0 0
rhand -24.2406 -24.5354 0.0168424
rfingers 7.12502 -0 0
rthumb 2.24499 -54.4977 0.0161623
484
root 4.22579 16.4437 -6.75809 6.97404 69.3397 -2.6445
lfemur -33.53 -8.92142 -23.6091
ltibia 45.9779 0 0
lfoot -21.1734 -2.19044 0
ltoes 18.5409 0 0
rfemur -39.2433 -0.398685 10.2498
rtibia 83.2088 0 0
rfoot 18.6477 5.00504 0
rtoes -17.3184 0 0
lowerback 2.80895 -0.395314 0.129542
upperback -0.285297 -0.512072 0.512318
thorax -1.86323 -0.25397 0.474865
lowerneck -8.51357 -7.80601 -0.373066
upperneck 4.72242 -10.5143 1.86088
head 3.13186 -5.15179 0.0995613
lclavicle 7.92033e-16 -5.54112e-15 0
lhumerus -49.2505 -29.6974 110.571
lradius 56.3056 0 0
lwrist 4.94023 0 0
lhand -0.505724 -1.42422 0
lfingers 7.12502 0 0
lthumb 25.1059 26.9452 0
rclavicle 7.92033e-16 -5.54112e-15 0
rhumerus -50.8159 8.64771 -89.6376
rradius 65.185 0 0
rwrist 20.1445 0 0
rhand -23.8818 -24.267 0
rfingers 7.12502 0 0
rthumb 2.59155 -774.231 0
485
root 4.29201 16.4428 -6.6979 6.66618 70.588 -2.73836
lfemur -33.1062 -9.34449 -23.5214
ltibia 46.1528 -0 0
lfoot -21.3823 -2.40229 0.007732
ltoes 18.2093 -0 0
rfemur -40.174 -0.015247 10.1436
rtibia 82.351 -0 0
rfoot 18.1995 5.19755 -0.0150952
rtoes -17.2619 0 0
lowerback 3.04702 -0.381916 0.0731891
upperback -0.227689 -0.489732 0.587891
thorax -1.93715 -0.242638 0.584314
lowerneck -8.54251 -7.96436 -0.499215
upperneck 5.00683 -10.7192 1.88669
head 3.22468 -5.25122 0.0997741
lclavicle -1.06847e-14 1.39149e-14 0
lhumerus -49.1809 -29.9373 110.906
lradius 56.3175 -0 0
lwrist 4.95912 0 0
lhand -0.08095 -1.3362 0.0065381
lfingers 7.12502 -0 0
lthumb 25.5114 26.9618 0.001177
rclavicle -1.06847e-14 1.39149e-14 0
rhumerus -49.9011 10.5201 -89.7874
rradius 67.1377 -0 0
rwrist 19.5329 0 0
rhand -22.3025 -23.6781 0.167234
rfingers 7.12502 -0 0
rthumb 4.10518 -53.487 0.202511
486
root 4.35822 16.442 -6.63772 6.3314 71.836 -2.85995
lfemur -32.6826 -9.76818 -23.4367
ltibia 46.3277 -0 0
lfoot -21.5913 -2.61416 0.0146914
ltoes 17.8777 -0 0
rfemur -41.1055 0.366414 10.0312
rtibia 81.4932 -0 0
rfoot 17.7513 5.39018 -0.0286839
rtoes -17.2055 0 0
lowerback 3.28507 -0.368285 0.0168925
upperback -0.170053 -0.467469 0.663486
thorax -2.01105 -0.231164 0.693748
lowerneck -8.57111 -8.12277 -0.625332
upperneck 5.29133 -10.9243 1.91148
head 3.31752 -5.35065 0.0998252
lclavicle -1.06847e-14 1.39149e-14 0
lhumerus -49.1128 -30.1775 111.242
lradius 56.3294 -0 0
lwrist 4.97801 0 0
lhand 0.343834 -1.24813 0.0124235
lfingers 7.12502 -0 0
lthumb 25.9169 26.9784 0.00223646
rclavicle -1.06847e-14 1.39149e-14 0
rhumerus -48.9852 12.3947 -89.9075
rradius 69.0903 -0 0
rwrist 18.9213 0 0
rhand -20.7216 -23.0848 0.318165
rfingers 7.12502 -0 0
rthumb 5.62133 -52.738 0.385283
